<svg xmlns="http://www.w3.org/2000/svg" viewBox="0 0 1140 269.6"><path fill="#F00" d="M0 149.5l22.1-10.6 41.1 10.6 24.2-17.9h18.9v-7.4h35.8l42.1-34.7 22.1-9.7 47.4 6.5 22.1-6.5 21 12.8h39l20-17.9 16.8-4.2 10.6-8.4 11.5 10.5 39 17.9 13.7 7.4 27.3 7.9 12.7 19.5v20l20 8.4h16.8l8.4 15.8 17.9 10.5 17.9 24.2 40 12.6 33.7 23.2 19 29.5H0z"/><path fill="#0F0" d="M126.2 269.5l24.2-15.8 6.3-19 24.2-26.3 26.3-6.3 14.7-20 13.7-13.7 37.9-6.3 27.4-26.3 29.5-11.6 10.5-23.4 25.3-14.5 12.6 5.3 33.7 9.2 8.4 13.9 51.6-13.9 9.4 10.8 47.4-25.3 34.8-45.2 34.7-22.2 31.6 14.8 13.7 5.2 20 4.3 47.3-9.5 27.4-14.8L791.4 0l22.1 24.2 24.2-15.8 47.4 3.2 16.8 8.4 12.7 7.4 16.8 16.8 9.5 12.6 37.9 13.7 43.1 23.2 32.7 34.7 31.6 30.5 22.1 47.4 31.5 25.3v37.9z"/><path fill="#00F" d="M182.1 269.5l45.3-32.7 36.8-57.9 26.3-18.9 92.7-40 41 13.7 26.3-22.1 9.5-7.4 22.1 5.3 15.8 3.1 76.8-47.3h26.4l52.6-22.1 7.4 12.6 64.2 12.6 24.2 10.5 46.3 28.5 36.8 53.7 12.7 23.1 28.4 8.4 22.1 15.8 24.2 30.5 82.1 30.6z"/><path fill="#646464" d="M496.8 269.6l40-26.3 24.6-15.8h46l25.2-17.9 70.6-35.8 5.2-16.9 6.3-10.5 9.5-8.4 59-18.9 54.7-53.7 25.3-5.3 28.4-5.3 16.8 17.9 10.5 22.1 20-10.5 68.5 4.2 29.4 5.3 43.2 6.3 4.2 8.4 36.9 3.2 10.5 10.5 8.4 24.2v123.2z"/></svg>