<svg xmlns="http://www.w3.org/2000/svg" viewBox="4 339.9 1041.3 258.6">
	<path fill="#300" d="M0 491l18.5-7.5L36 491h26l15.5-14.5H88l8.5-8.5 23.5 4 14-7.5 13.5-15L169 434l17.5-4.3h15l13 5.3 11-1 19-4.3 11.5 6.8 14 3.6 13 2.9 20.5-2.9 24-13.6 14.5-3 6-8 7 3 7 6 16 .5 19.5 15.1 10 4.4 8.5 8.7 8.5 15.8 28.5 16.5h12l9 5.5 16.5 24.5 12 13V548l15 19 9.5 5.5 16-7.5 14.5 11 11.1 8 12.9 8.5 8.5 6H-24.7z"/>
	<path fill="#300" d="M152.7 598.5L166 586l40-29.3 27.3-44 14.7-17.4 15.3-6 19.4-14 35.3-16.6 10-3.4 20-12 6.7 6 8.6 3.4 16 8.6 8.7-2 19.5-14.8 13.2-11.2 16 5.4h10.6l4 3.3 20-1.3 34.7-25.2 22.7-20.2 16.6 2.7 51.4-17.3 10 6.6 43.3 8 42-38 43.3-13.3 10.7-3.1 20.7 21.1 18-14 18 2 30.6 8 48.7 42 32 10 70 35.3 32.7 32 34 66 31.3 47.4 3.3 7.8z"/>
	<path d="M274 560l43.3-58.7-10-6 30-24.1-9.3-15.9 25.3 6h26L396 466l20-12.8 8.7 8.8 22.6-23.3 4 3.3 20-1.3 12 6.6 28.7-24.6v-12.5l16.7-14.9 16.6 2.7 51.4-17.3 18 22 35.3-7.4 21.3-8 5.4 8.7 15.3 8 26.7-2 14-2 8 4.7v5.3l5.3 19h6.7l-40 41.3-56 17.7-8 10.7-5.4 18.6-60.6 29.4-19.4 16.6-42.6 3.4-28.7 10.6 28.7 11.4h-43.4L454 576l-42.7 4 41.4-30-58.7 18-46-8.7z"/>
</svg>
