<svg version="1.1" xmlns="http://www.w3.org/2000/svg" viewBox="0 0 623.9991041002884 620.5519488602877" width="1247.9982082005768" height="1241.1038977205753">
  <!-- svg-source:excalidraw -->
  
  <defs>
    <style>
      @font-face {
        font-family: "Virgil";
        src: url("https://excalidraw.com/Virgil.woff2");
      }
      @font-face {
        font-family: "Cascadia";
        src: url("https://excalidraw.com/Cascadia.woff2");
      }
    </style>
  </defs>
  <g stroke-linecap="round" transform="translate(87.75977732986212 73.95390401035547) rotate(0 211.5 211.5)"><path d="M269.55 8.39 C287.16 9.87, 305.68 21.04, 321.45 30.33 C337.23 39.62, 351.84 51.14, 364.21 64.14 C376.57 77.13, 386.73 92.4, 395.64 108.31 C404.54 124.22, 413.13 141.84, 417.65 159.6 C422.17 177.37, 423.27 196.66, 422.75 214.89 C422.22 233.11, 419.63 251.37, 414.49 268.97 C409.36 286.58, 401.36 304.7, 391.93 320.53 C382.5 336.36, 371.01 351.17, 357.91 363.94 C344.81 376.71, 329.08 388.23, 313.34 397.17 C297.6 406.11, 281.03 413.16, 263.46 417.58 C245.89 422.01, 226.34 424.15, 207.94 423.74 C189.55 423.32, 170.76 420.1, 153.08 415.09 C135.41 410.07, 117.36 403.23, 101.88 393.65 C86.4 384.06, 72.7 370.73, 60.19 357.57 C47.68 344.41, 35.9 330.62, 26.83 314.68 C17.77 298.74, 10.2 279.9, 5.81 261.92 C1.42 243.94, 0.13 225, 0.48 206.81 C0.82 188.61, 2.78 170.15, 7.87 152.77 C12.95 135.4, 21.43 118.09, 31.01 102.56 C40.59 87.03, 52.31 72.13, 65.35 59.6 C78.4 47.08, 93.4 36.17, 109.26 27.39 C125.11 18.6, 142.89 11.45, 160.49 6.9 C178.09 2.35, 195.69 -0.23, 214.85 0.09 C234.01 0.41, 265.05 6.45, 275.45 8.81 C285.85 11.17, 278.44 10.83, 277.25 14.27 M211.38 -0.66 C228.32 -4.17, 246.68 2.88, 263.9 7.61 C281.12 12.33, 298.72 18.61, 314.7 27.67 C330.68 36.73, 346.69 49.34, 359.8 61.97 C372.91 74.6, 383.94 88.06, 393.36 103.44 C402.79 118.81, 411.23 136.72, 416.36 154.23 C421.5 171.73, 424.38 190, 424.17 208.48 C423.95 226.96, 419.8 247.08, 415.07 265.11 C410.34 283.14, 404.49 300.99, 395.78 316.64 C387.07 332.3, 375.47 346.4, 362.82 359.02 C350.16 371.65, 335.65 382.92, 319.84 392.4 C304.04 401.89, 285.62 410.92, 267.97 415.93 C250.33 420.93, 232.39 422.23, 213.98 422.43 C195.58 422.64, 175.14 421.84, 157.52 417.14 C139.91 412.44, 123.84 403.52, 108.3 394.22 C92.76 384.92, 77.51 373.85, 64.26 361.34 C51.01 348.83, 38.34 334.76, 28.79 319.14 C19.24 303.52, 11.96 285.4, 6.95 267.63 C1.94 249.86, -1.34 230.52, -1.26 212.52 C-1.17 194.53, 2.74 177.37, 7.47 159.63 C12.21 141.89, 18.4 122.41, 27.13 106.09 C35.86 89.78, 47.14 74.69, 59.87 61.74 C72.6 48.79, 87.8 37.65, 103.53 28.4 C119.26 19.16, 136.66 10.95, 154.25 6.26 C171.84 1.57, 199.63 0.8, 209.08 0.25 C218.53 -0.3, 210.74 -0.26, 210.93 2.98" stroke="#000000" stroke-width="2" fill="none"></path></g><g stroke-linecap="round" transform="translate(411.7597773298621 99.95390401035547) rotate(0 28.5 28.5)"><path d="M35.27 1.25 C41.09 2.26, 47.82 6.71, 51.46 11.55 C55.11 16.39, 57.59 24.46, 57.14 30.29 C56.7 36.12, 52.82 42.18, 48.79 46.53 C44.75 50.88, 38.69 55.25, 32.92 56.41 C27.15 57.56, 19.48 56.69, 14.18 53.45 C8.89 50.22, 3.21 42.96, 1.15 36.99 C-0.91 31.02, -0.42 23.08, 1.81 17.62 C4.05 12.17, 8.77 7.05, 14.56 4.28 C20.35 1.5, 32.39 1.27, 36.55 0.96 C40.7 0.64, 39.43 1.89, 39.48 2.39 M20.15 1.44 C25.86 -1.02, 34.94 -1.19, 40.78 1.25 C46.62 3.69, 52.48 10.49, 55.17 16.08 C57.86 21.67, 58.65 29.1, 56.93 34.8 C55.22 40.51, 49.85 46.58, 44.87 50.32 C39.88 54.05, 32.84 57.46, 27.01 57.21 C21.18 56.95, 14.22 52.86, 9.89 48.79 C5.56 44.71, 1.75 38.55, 1.02 32.76 C0.3 26.96, 2.58 19.09, 5.53 14.01 C8.49 8.92, 16.27 4.44, 18.76 2.25 C21.26 0.05, 20.04 0.65, 20.51 0.83" stroke="none" stroke-width="0" fill="#fab005"></path><path d="M20.32 1.6 C25.73 -0.33, 34.74 -0.53, 40.25 1.91 C45.76 4.34, 50.59 10.85, 53.38 16.22 C56.18 21.59, 58.19 28.37, 57.03 34.12 C55.87 39.87, 51.45 46.86, 46.4 50.72 C41.35 54.58, 33.04 57.55, 26.73 57.29 C20.43 57.04, 13.14 53.5, 8.58 49.2 C4.02 44.91, -0.05 37.44, -0.63 31.54 C-1.22 25.65, 0.61 19.18, 5.07 13.82 C9.54 8.46, 21.66 1.68, 26.16 -0.63 C30.65 -2.93, 32.05 -0.52, 32.04 -0.02 M19.79 2.45 C25.2 0.44, 32.39 -0.09, 37.78 2.19 C43.16 4.46, 49.12 10.5, 52.1 16.08 C55.07 21.66, 56.71 29.83, 55.62 35.67 C54.52 41.51, 50.21 47.41, 45.54 51.12 C40.87 54.83, 33.8 57.96, 27.61 57.93 C21.43 57.91, 12.88 55.42, 8.43 50.98 C3.98 46.54, 1.83 37.64, 0.94 31.29 C0.04 24.95, -0.16 18.04, 3.05 12.94 C6.26 7.83, 17.3 2.29, 20.18 0.66 C23.06 -0.97, 20.45 2.57, 20.33 3.15" stroke="#000000" stroke-width="2" fill="none"></path></g><g stroke-linecap="round" transform="translate(451.2597773298621 151.45390401035547) rotate(0 28.5 28.5)"><path d="M15.65 3.83 C20.57 0.71, 28.9 -0.75, 34.92 0.59 C40.94 1.94, 48.18 7.03, 51.77 11.88 C55.35 16.73, 56.7 23.57, 56.41 29.67 C56.13 35.77, 54.04 43.91, 50.04 48.48 C46.04 53.06, 38.65 56.5, 32.42 57.11 C26.19 57.73, 17.76 55.41, 12.64 52.16 C7.51 48.91, 3.34 43.38, 1.67 37.61 C0 31.84, -0.45 23.68, 2.61 17.53 C5.67 11.38, 16.69 3.59, 20.06 0.71 C23.42 -2.18, 22.95 -0.22, 22.82 0.21 M34.94 2.48 C40.91 3.85, 49.27 9.2, 52.76 13.83 C56.24 18.45, 56.68 24.42, 55.84 30.21 C55.01 36.01, 51.82 44.23, 47.76 48.57 C43.69 52.92, 37.27 55.95, 31.45 56.31 C25.62 56.66, 17.68 54.2, 12.83 50.68 C7.98 47.16, 4.27 40.98, 2.35 35.19 C0.43 29.4, -1.12 21.52, 1.31 15.93 C3.73 10.34, 11.27 4.29, 16.88 1.65 C22.49 -0.99, 31.67 0.07, 34.98 0.08 C38.29 0.09, 36.44 1.13, 36.74 1.7" stroke="none" stroke-width="0" fill="#fab005"></path><path d="M37.92 0.91 C43.74 2.27, 50.34 8.1, 53.33 13.39 C56.32 18.68, 57.04 26.66, 55.86 32.64 C54.68 38.63, 50.74 45.11, 46.23 49.31 C41.73 53.51, 34.87 57.75, 28.83 57.83 C22.79 57.9, 14.72 53.91, 9.97 49.79 C5.23 45.67, 1.45 39.03, 0.34 33.1 C-0.77 27.18, 0.18 19.39, 3.3 14.23 C6.41 9.08, 12.26 3.71, 19.06 2.15 C25.86 0.59, 39.09 3.48, 44.12 4.87 C49.14 6.26, 49.47 10.14, 49.22 10.49 M17 4.03 C21.69 1.24, 28.79 -0.63, 34.49 0.62 C40.2 1.88, 47.29 6.53, 51.25 11.59 C55.22 16.65, 58.73 25.03, 58.28 30.97 C57.83 36.92, 52.83 42.92, 48.55 47.26 C44.27 51.61, 38.65 56.34, 32.61 57.03 C26.58 57.71, 17.69 54.81, 12.33 51.38 C6.97 47.95, 2.35 42.02, 0.46 36.44 C-1.44 30.85, -1.45 23.28, 0.96 17.87 C3.37 12.46, 12.56 6.19, 14.92 3.99 C17.28 1.79, 14.98 4.24, 15.13 4.68" stroke="#000000" stroke-width="2" fill="none"></path></g><g stroke-linecap="round" transform="translate(366.2597773298621 450.4539040103555) rotate(0 28.5 28.5)"><path d="M18.31 1.35 C23.54 -0.92, 33.17 -0.8, 38.9 1.33 C44.63 3.46, 49.67 8.66, 52.68 14.12 C55.68 19.58, 57.84 28.04, 56.94 34.1 C56.04 40.16, 52.12 46.85, 47.27 50.51 C42.41 54.16, 33.9 55.98, 27.81 56.03 C21.72 56.08, 15.4 54.78, 10.71 50.82 C6.02 46.86, 0.85 38.44, -0.33 32.28 C-1.52 26.11, -0.61 19.14, 3.6 13.84 C7.81 8.54, 20.77 2.57, 24.91 0.49 C29.06 -1.59, 28.56 0.94, 28.48 1.38 M26.96 -0.01 C32.48 -0.27, 39.86 2.26, 44.97 6.23 C50.07 10.21, 56.1 18, 57.59 23.86 C59.08 29.73, 56.97 36.3, 53.91 41.42 C50.85 46.55, 44.89 52.36, 39.24 54.62 C33.59 56.87, 25.86 56.72, 20.01 54.96 C14.16 53.19, 7.43 49.19, 4.15 44.02 C0.87 38.85, -0.51 30.25, 0.35 23.95 C1.21 17.65, 4.96 10.07, 9.32 6.23 C13.68 2.4, 23.18 1.87, 26.52 0.94 C29.86 0.02, 29.21 0.5, 29.36 0.68" stroke="none" stroke-width="0" fill="#fab005"></path><path d="M29.86 0.06 C35.54 0.25, 42.8 4.13, 47.19 8.46 C51.57 12.79, 55.43 19.94, 56.15 26.05 C56.87 32.16, 54.95 40.02, 51.52 45.11 C48.1 50.21, 41.39 55.02, 35.61 56.62 C29.83 58.22, 22.45 57.21, 16.85 54.72 C11.25 52.23, 4.56 47.14, 2.02 41.68 C-0.53 36.22, -0.12 27.96, 1.59 21.95 C3.3 15.95, 6.79 9.1, 12.29 5.65 C17.78 2.19, 30.06 1.85, 34.57 1.24 C39.07 0.62, 39.43 1.47, 39.31 1.95 M36.46 0.89 C42.11 2.38, 49.67 9, 53.14 14.24 C56.62 19.49, 57.98 26.7, 57.32 32.36 C56.66 38.02, 53.83 44.31, 49.19 48.19 C44.55 52.07, 36 55.37, 29.47 55.62 C22.94 55.87, 14.7 53.34, 10.03 49.68 C5.37 46.01, 2.54 39.56, 1.49 33.63 C0.43 27.69, 0.78 19.21, 3.7 14.09 C6.62 8.97, 13.23 5.19, 19.04 2.9 C24.84 0.6, 35.71 0.59, 38.51 0.3 C41.31 0.02, 36.27 0.44, 35.84 1.19" stroke="#000000" stroke-width="2" fill="none"></path></g><g stroke-linecap="round" transform="translate(292.2597773298621 458.4539040103555) rotate(0 28.5 28.5)"><path d="M30.51 -0.75 C36.3 -0.62, 43.17 3.27, 47.43 7.78 C51.7 12.3, 55.36 20.3, 56.12 26.34 C56.87 32.39, 55.37 39.02, 51.97 44.06 C48.57 49.11, 41.58 54.97, 35.71 56.62 C29.83 58.28, 22.34 56.67, 16.72 54 C11.1 51.34, 4.74 46.18, 1.98 40.63 C-0.77 35.09, -1.32 26.67, 0.18 20.72 C1.68 14.76, 4.75 8.2, 11 4.9 C17.25 1.6, 32.29 1.07, 37.68 0.91 C43.07 0.75, 43.66 3.56, 43.33 3.96 M39.17 3.43 C44.71 5.74, 51.24 12.13, 54.28 17.41 C57.32 22.69, 59.11 29.33, 57.42 35.13 C55.73 40.93, 49.45 48.52, 44.12 52.21 C38.79 55.91, 31.11 57.97, 25.43 57.3 C19.76 56.63, 14.36 52.64, 10.05 48.18 C5.74 43.73, 0.4 36.28, -0.42 30.56 C-1.24 24.83, 1.59 18.61, 5.13 13.84 C8.67 9.07, 15.14 3.97, 20.83 1.93 C26.52 -0.11, 36.06 1.65, 39.3 1.59 C42.53 1.53, 40.23 0.99, 40.23 1.55" stroke="none" stroke-width="0" fill="#fab005"></path><path d="M29.22 0.51 C35.14 0.71, 43.36 4.43, 47.91 8.48 C52.47 12.53, 55.97 18.74, 56.57 24.81 C57.17 30.88, 54.63 39.86, 51.5 44.9 C48.38 49.94, 43.59 53.49, 37.83 55.05 C32.06 56.61, 22.65 56.36, 16.89 54.27 C11.13 52.17, 5.94 47.86, 3.26 42.46 C0.59 37.06, -0.63 27.98, 0.83 21.88 C2.3 15.77, 6.86 9.42, 12.06 5.81 C17.25 2.19, 28.31 1.12, 32.02 0.19 C35.74 -0.74, 34.49 -0.22, 34.33 0.25 M16.28 3.63 C21.14 0.54, 28.18 -0.22, 33.92 1.17 C39.65 2.56, 46.94 7.18, 50.7 11.97 C54.46 16.76, 56.54 23.92, 56.46 29.89 C56.39 35.87, 54.32 43.43, 50.24 47.83 C46.16 52.24, 38.3 55.79, 31.98 56.32 C25.66 56.86, 17.27 54.04, 12.31 51.05 C7.35 48.06, 3.89 44.06, 2.23 38.38 C0.56 32.69, 0.25 23.03, 2.32 16.95 C4.39 10.88, 12.65 4.21, 14.65 1.9 C16.64 -0.41, 14.13 2.55, 14.31 3.08" stroke="#000000" stroke-width="2" fill="none"></path></g><g stroke-linecap="round" transform="translate(104.25977732986212 378.4539040103555) rotate(0 28.5 28.5)"><path d="M35.92 0.74 C41.71 1.88, 48.54 6.63, 52.05 11.65 C55.55 16.67, 57.35 24.92, 56.97 30.87 C56.58 36.82, 53.98 43.02, 49.74 47.37 C45.5 51.72, 37.77 56.21, 31.52 56.96 C25.27 57.71, 17.3 55.33, 12.23 51.86 C7.15 48.39, 2.64 42.06, 1.07 36.16 C-0.5 30.26, 0.39 22.14, 2.81 16.47 C5.22 10.8, 9.64 4.65, 15.56 2.13 C21.47 -0.38, 34.04 1.17, 38.3 1.39 C42.56 1.6, 41.36 3.06, 41.12 3.41 M22.76 0.28 C28.07 -0.9, 36.91 0.6, 42.5 3.81 C48.09 7.01, 54.08 13.47, 56.33 19.51 C58.58 25.56, 58.47 34.19, 56 40.07 C53.53 45.95, 46.93 51.89, 41.51 54.8 C36.1 57.7, 29.61 58.76, 23.51 57.5 C17.4 56.24, 8.79 52.39, 4.87 47.23 C0.94 42.07, -0.3 32.94, -0.05 26.52 C0.2 20.11, 2.36 13.23, 6.38 8.76 C10.4 4.28, 20.93 1.17, 24.07 -0.33 C27.21 -1.83, 25.11 -0.72, 25.2 -0.23" stroke="none" stroke-width="0" fill="#fab005"></path><path d="M37.85 1.53 C43.32 3.21, 49.82 8.5, 52.8 13.82 C55.78 19.13, 56.71 27.36, 55.74 33.44 C54.77 39.51, 51.56 46.45, 47 50.28 C42.43 54.1, 34.64 56.55, 28.36 56.37 C22.07 56.19, 13.8 53.15, 9.27 49.2 C4.74 45.25, 2.07 38.66, 1.17 32.66 C0.28 26.66, 0.76 18.37, 3.89 13.2 C7.02 8.04, 13.7 3.29, 19.95 1.67 C26.2 0.04, 37.79 3.2, 41.4 3.44 C45.01 3.68, 41.9 2.94, 41.62 3.1 M31.36 -0.8 C37 -0.11, 45.32 5.49, 49.63 10.25 C53.94 15.01, 57.07 22.02, 57.23 27.78 C57.38 33.54, 54.2 40.28, 50.56 44.79 C46.92 49.3, 41.15 53.36, 35.39 54.86 C29.63 56.37, 21.38 56.36, 16 53.81 C10.61 51.27, 5.75 45, 3.07 39.58 C0.39 34.16, -1.91 27.1, -0.1 21.27 C1.7 15.44, 8.57 8.11, 13.88 4.61 C19.19 1.1, 28.87 0.9, 31.75 0.23 C34.62 -0.44, 31.25 0.14, 31.12 0.58" stroke="#000000" stroke-width="2" fill="none"></path></g><g stroke-linecap="round" transform="translate(122.25977732986212 100.45390401035547) rotate(0 28.5 28.5)"><path d="M37.69 0.75 C43.42 2.17, 49.96 7.52, 53.2 13.07 C56.45 18.61, 58.25 27.67, 57.16 34.01 C56.06 40.34, 51.47 47.09, 46.62 51.05 C41.77 55.02, 34.22 57.76, 28.05 57.8 C21.87 57.85, 14.01 55.42, 9.56 51.31 C5.1 47.21, 2.26 39.44, 1.3 33.18 C0.35 26.93, 1 18.95, 3.84 13.79 C6.67 8.62, 12.27 4.06, 18.29 2.2 C24.31 0.34, 35.81 2.23, 39.95 2.61 C44.08 3, 43.17 4.15, 43.08 4.5 M21.84 2.01 C27.48 0.14, 37.18 0.45, 42.72 3.09 C48.27 5.73, 53.15 12.22, 55.13 17.85 C57.1 23.49, 56.66 31.19, 54.58 36.91 C52.5 42.63, 47.31 49.04, 42.64 52.16 C37.97 55.27, 32.47 56.07, 26.57 55.59 C20.67 55.11, 11.43 53.73, 7.22 49.29 C3.02 44.86, 1.35 35.09, 1.33 28.96 C1.3 22.84, 3.48 17.23, 7.08 12.54 C10.69 7.86, 20.29 2.56, 22.97 0.87 C25.65 -0.83, 23.38 2.11, 23.16 2.35" stroke="none" stroke-width="0" fill="#fab005"></path><path d="M21.3 0.19 C26.86 -1.46, 35.28 0.63, 40.83 3.28 C46.39 5.92, 52.01 10.57, 54.65 16.04 C57.28 21.52, 58.23 30.1, 56.65 36.11 C55.08 42.11, 50.35 48.52, 45.2 52.07 C40.05 55.63, 31.81 58.17, 25.74 57.43 C19.66 56.69, 13.04 52.08, 8.74 47.64 C4.44 43.21, 0.59 36.84, -0.06 30.82 C-0.71 24.8, 0.65 16.7, 4.84 11.54 C9.03 6.37, 21 1.74, 25.09 -0.18 C29.19 -2.11, 29.38 -0.43, 29.4 -0.03 M32.35 -0.11 C37.99 0.05, 43.8 4.32, 48.15 8.75 C52.5 13.18, 58.19 20.29, 58.46 26.46 C58.74 32.63, 53.89 40.82, 49.81 45.75 C45.74 50.68, 39.59 54.65, 34 56.03 C28.4 57.41, 21.4 56.59, 16.25 54.05 C11.1 51.51, 5.71 46.22, 3.09 40.76 C0.47 35.31, -1.22 27.2, 0.54 21.32 C2.29 15.45, 8.61 8.89, 13.64 5.52 C18.67 2.14, 27.65 2.09, 30.72 1.07 C33.79 0.04, 31.98 -0.8, 32.05 -0.63" stroke="#000000" stroke-width="2" fill="none"></path></g><g stroke-linecap="round" transform="translate(265.2597773298621 47.45390401035547) rotate(0 28.5 28.5)"><path d="M21.9 1.59 C27.51 -0.22, 36.76 0.4, 42.27 3.08 C47.79 5.76, 52.87 12.04, 54.99 17.67 C57.11 23.3, 56.96 31.1, 54.98 36.86 C53 42.62, 47.93 49.04, 43.12 52.23 C38.3 55.41, 32.03 56.55, 26.08 55.99 C20.12 55.43, 11.58 53.3, 7.38 48.86 C3.19 44.42, 1.03 35.45, 0.9 29.33 C0.77 23.21, 2.58 16.99, 6.62 12.16 C10.67 7.33, 21.64 2.17, 25.17 0.36 C28.7 -1.45, 27.94 0.98, 27.78 1.31 M28.8 -1.15 C34.81 -1.42, 43.15 1.65, 47.74 5.75 C52.33 9.85, 55.5 17.11, 56.34 23.44 C57.17 29.77, 55.91 38.34, 52.75 43.74 C49.58 49.14, 43.05 53.81, 37.33 55.86 C31.62 57.9, 24.05 58.05, 18.45 56.02 C12.85 53.98, 6.91 49.02, 3.71 43.64 C0.51 38.25, -1.81 29.9, -0.73 23.7 C0.35 17.51, 5.36 10.48, 10.17 6.47 C14.99 2.46, 25.16 0.56, 28.16 -0.35 C31.16 -1.26, 28.31 0.35, 28.17 0.99" stroke="none" stroke-width="0" fill="#82c91e"></path><path d="M32.29 0.01 C37.99 0.24, 44.31 4.45, 48.59 8.9 C52.87 13.35, 57.69 20.57, 57.97 26.71 C58.24 32.86, 54.21 40.87, 50.26 45.77 C46.3 50.67, 39.95 54.76, 34.23 56.12 C28.52 57.49, 21.2 56.6, 15.96 53.97 C10.72 51.33, 5.32 45.84, 2.79 40.32 C0.26 34.81, -0.99 26.73, 0.79 20.87 C2.57 15.01, 8.17 8.48, 13.47 5.17 C18.78 1.86, 29.05 1.81, 32.61 1.01 C36.17 0.2, 34.8 0.08, 34.81 0.34 M27.24 0.09 C33.06 -0.7, 41.28 1.61, 46.19 5.25 C51.11 8.89, 55.43 15.52, 56.74 21.94 C58.05 28.37, 57.22 38.04, 54.07 43.8 C50.91 49.57, 43.84 54.41, 37.81 56.53 C31.77 58.65, 23.71 58.6, 17.85 56.53 C12 54.46, 5.39 49.71, 2.69 44.11 C-0.01 38.51, 0.4 29.34, 1.66 22.94 C2.93 16.55, 5.89 9.49, 10.28 5.76 C14.67 2.04, 25.11 1.48, 28 0.61 C30.88 -0.26, 27.38 0.12, 27.58 0.53" stroke="#000000" stroke-width="2" fill="none"></path></g><g stroke-linecap="round" transform="translate(57.25977732986212 272.4539040103555) rotate(0 28.5 28.5)"><path d="M40.4 1.33 C45.59 3.39, 50.19 10.87, 52.93 16.36 C55.68 21.84, 58.1 28.5, 56.87 34.25 C55.64 39.99, 50.65 46.9, 45.56 50.8 C40.46 54.7, 32.48 57.87, 26.29 57.65 C20.09 57.42, 12.85 53.58, 8.39 49.44 C3.92 45.29, 0.22 38.98, -0.5 32.76 C-1.23 26.55, 0.68 17.29, 4.03 12.13 C7.37 6.96, 13.23 3.13, 19.56 1.78 C25.88 0.42, 38.05 3.46, 41.97 4.01 C45.89 4.56, 43.33 4.94, 43.07 5.09 M24.96 -0.22 C30.73 -1.68, 39.23 0.08, 44.52 3.27 C49.8 6.46, 54.95 13.18, 56.67 18.93 C58.39 24.69, 57 32.03, 54.82 37.78 C52.64 43.53, 48.86 50.58, 43.62 53.45 C38.37 56.32, 29.35 56.29, 23.34 55.02 C17.33 53.75, 11.4 50.54, 7.57 45.81 C3.74 41.08, 0.44 32.75, 0.36 26.64 C0.28 20.53, 3.23 13.53, 7.06 9.17 C10.89 4.82, 20.68 2.09, 23.34 0.49 C26 -1.12, 22.66 -1.08, 23.05 -0.48" stroke="none" stroke-width="0" fill="#82c91e"></path><path d="M41.42 2.84 C46.72 5.13, 51.85 11.84, 54.22 17.56 C56.59 23.28, 57.37 31.33, 55.63 37.16 C53.89 43, 49.03 49.18, 43.79 52.57 C38.55 55.96, 30.25 58.34, 24.19 57.49 C18.13 56.64, 11.55 51.97, 7.41 47.46 C3.27 42.94, -0.38 36.59, -0.63 30.4 C-0.89 24.21, 2.21 15.22, 5.88 10.3 C9.56 5.38, 15.1 1.77, 21.41 0.89 C27.72 0.02, 39.49 4.02, 43.74 5.05 C47.99 6.07, 47.13 6.76, 46.9 7.05 M26.87 0.39 C32.72 -0.3, 40.52 2.61, 45.54 6.19 C50.56 9.77, 55.88 15.86, 57 21.87 C58.13 27.88, 55.51 36.58, 52.29 42.27 C49.08 47.97, 43.33 53.69, 37.7 56.03 C32.06 58.36, 24.08 58.28, 18.48 56.3 C12.88 54.33, 7.12 49.69, 4.08 44.17 C1.05 38.65, -0.92 29.51, 0.29 23.19 C1.5 16.87, 6.46 10.12, 11.37 6.25 C16.28 2.37, 26.95 0.74, 29.74 -0.05 C32.53 -0.84, 28.14 0.82, 28.12 1.51" stroke="#000000" stroke-width="2" fill="none"></path></g><g stroke-linecap="round" transform="translate(465.2597773298621 337.4539040103555) rotate(0 28.5 28.5)"><path d="M15.27 2.41 C20.1 -0.66, 28.55 -1.29, 34.43 0.13 C40.3 1.56, 46.85 6.24, 50.5 10.96 C54.15 15.68, 56.31 22.27, 56.33 28.46 C56.34 34.65, 54.52 43.24, 50.6 48.1 C46.68 52.97, 39.03 56.75, 32.82 57.66 C26.61 58.57, 18.61 56.96, 13.34 53.56 C8.07 50.16, 3.16 43.05, 1.21 37.25 C-0.73 31.45, -1.32 24.65, 1.67 18.74 C4.65 12.84, 15.42 4.7, 19.12 1.82 C22.81 -1.06, 23.62 1.01, 23.83 1.47 M21.99 0.28 C27.46 -1.2, 34.23 0.29, 39.62 3.2 C45 6.1, 51.39 12.1, 54.31 17.72 C57.22 23.34, 58.55 31.38, 57.11 36.9 C55.67 42.41, 51 47.58, 45.67 50.81 C40.34 54.03, 31.22 56.78, 25.14 56.24 C19.06 55.71, 13.13 52.09, 9.17 47.6 C5.21 43.12, 2.24 35.52, 1.38 29.35 C0.52 23.18, 0.44 15.38, 4.02 10.58 C7.61 5.77, 19.77 1.89, 22.89 0.53 C26.02 -0.84, 22.83 1.71, 22.78 2.41" stroke="none" stroke-width="0" fill="#7950f2"></path><path d="M37.18 0.96 C42.95 2.2, 50.13 7.71, 53.56 12.95 C56.99 18.18, 58.74 26.14, 57.73 32.36 C56.73 38.58, 52.08 46.02, 47.54 50.26 C42.99 54.5, 36.5 57.77, 30.44 57.78 C24.38 57.79, 16.02 54.03, 11.19 50.31 C6.35 46.59, 2.74 41.15, 1.43 35.45 C0.12 29.75, 0.75 21.81, 3.33 16.11 C5.91 10.4, 10.54 3.37, 16.9 1.22 C23.25 -0.93, 37.13 2.65, 41.45 3.21 C45.76 3.77, 43.19 4.37, 42.77 4.56 M36.86 2.54 C42.53 3.88, 49.13 7.27, 52.31 12.49 C55.5 17.71, 56.66 27.35, 55.95 33.87 C55.24 40.39, 52.51 47.59, 48.07 51.6 C43.62 55.6, 35.45 58.26, 29.28 57.91 C23.1 57.56, 15.87 53.41, 11 49.52 C6.12 45.62, 1.18 40.2, 0.01 34.54 C-1.16 28.87, 1 20.74, 3.98 15.53 C6.96 10.32, 12.34 5.36, 17.88 3.25 C23.42 1.14, 33.93 3.11, 37.21 2.87 C40.5 2.64, 37.75 1.39, 37.58 1.83" stroke="#000000" stroke-width="2" fill="none"></path></g><g stroke-linecap="round" transform="translate(199.25977732986212 450.4539040103555) rotate(0 28.5 28.5)"><path d="M21.82 1.97 C27.53 0.24, 35.94 0.08, 41.18 2.63 C46.43 5.17, 50.76 11.78, 53.29 17.22 C55.81 22.65, 57.63 29.37, 56.35 35.24 C55.06 41.12, 50.63 48.88, 45.56 52.47 C40.49 56.07, 32.15 57.32, 25.91 56.82 C19.68 56.32, 12.3 53.66, 8.13 49.46 C3.97 45.27, 1.36 37.8, 0.93 31.63 C0.49 25.47, 1.94 17.7, 5.51 12.46 C9.09 7.22, 19.19 2.19, 22.38 0.22 C25.57 -1.76, 24.37 0.17, 24.64 0.62 M17.69 2.54 C22.86 0.18, 31.17 -1.73, 37.23 0.33 C43.3 2.39, 50.83 9.25, 54.08 14.9 C57.33 20.55, 58.21 28.36, 56.75 34.24 C55.29 40.11, 50.02 46.34, 45.31 50.15 C40.6 53.95, 34.55 57.04, 28.51 57.05 C22.47 57.06, 13.81 54.1, 9.07 50.22 C4.34 46.33, 1.19 39.84, 0.1 33.75 C-0.99 27.67, -0.35 19.18, 2.54 13.7 C5.43 8.22, 14.88 2.88, 17.46 0.88 C20.03 -1.12, 17.37 1.21, 17.99 1.68" stroke="none" stroke-width="0" fill="#7950f2"></path><path d="M32.79 0 C38.45 0.59, 45.08 5.57, 49.06 10.2 C53.04 14.84, 56.34 21.94, 56.66 27.8 C56.98 33.67, 54.66 40.56, 50.96 45.41 C47.26 50.25, 40.32 55.6, 34.46 56.86 C28.59 58.11, 21.11 55.87, 15.78 52.93 C10.45 49.98, 4.91 44.84, 2.47 39.19 C0.02 33.55, -0.62 24.89, 1.12 19.05 C2.86 13.22, 6.63 7.07, 12.89 4.2 C19.16 1.33, 33.32 1.5, 38.69 1.84 C44.07 2.19, 45.31 5.9, 45.14 6.28 M28.18 -0.15 C33.94 -0.69, 41.1 2.36, 45.61 6.04 C50.12 9.72, 53.99 16.05, 55.25 21.93 C56.51 27.82, 55.82 36.02, 53.18 41.36 C50.53 46.69, 44.97 51.52, 39.41 53.94 C33.85 56.37, 25.48 57.48, 19.81 55.92 C14.14 54.36, 8.45 49.73, 5.39 44.57 C2.33 39.42, 0.74 31.08, 1.45 25 C2.16 18.92, 5.48 12.11, 9.67 8.09 C13.85 4.07, 23.79 2.04, 26.57 0.89 C29.35 -0.26, 26.08 0.8, 26.36 1.19" stroke="#000000" stroke-width="2" fill="none"></path></g><g transform="translate(219.25977732986212 466.9539040103555) rotate(0 8.5 12)"><text x="8.5" y="17" font-family="Virgil, Segoe UI Emoji" font-size="20px" fill="#000000" text-anchor="middle" style="white-space: pre;" direction="ltr">B</text></g><g transform="translate(486.2597773298621 353.9539040103555) rotate(0 7.5 12)"><text x="7.5" y="17" font-family="Virgil, Segoe UI Emoji" font-size="20px" fill="#000000" text-anchor="middle" style="white-space: pre;" direction="ltr">A</text></g><g transform="translate(285.2597773298621 63.95390401035547) rotate(0 8.5 12)"><text x="8.5" y="17" font-family="Virgil, Segoe UI Emoji" font-size="20px" fill="#000000" text-anchor="middle" style="white-space: pre;" direction="ltr">B</text></g><g transform="translate(78.25977732986212 287.9539040103555) rotate(0 7.5 12)"><text x="7.5" y="17" font-family="Virgil, Segoe UI Emoji" font-size="20px" fill="#000000" text-anchor="middle" style="white-space: pre;" direction="ltr">A</text></g><g stroke-linecap="round"><g transform="translate(468.563567947765 110.95811219801527) rotate(0 72.02107679044286 116.98200306845476)"><path d="M-1.39 0.03 C27.22 25.43, 57.05 50.67, 143.63 124.12 M0.81 0.59 C53.01 46.11, 105.6 92.32, 145.44 125.06 M145.31 123.35 C119.25 157.8, 90.14 190.76, 53.24 232.18 M143.95 124.76 C124.5 149.96, 103.54 172.28, 52.85 233.93" stroke="#000000" stroke-width="2" fill="none"></path></g><g transform="translate(468.563567947765 110.95811219801527) rotate(0 72.02107679044286 116.98200306845476)"><path d="M61.63 205.74 C59.46 210.44, 58.23 216.28, 51.71 233.05 M63.83 206.3 C59.78 215.09, 55.71 225.91, 53.51 233.99" stroke="#000000" stroke-width="2" fill="none"></path></g><g transform="translate(468.563567947765 110.95811219801527) rotate(0 72.02107679044286 116.98200306845476)"><path d="M77.39 218.88 C72.1 220.81, 67.71 224.02, 51.71 233.05 M79.6 219.44 C69.83 223.28, 60 229.3, 53.51 233.99" stroke="#000000" stroke-width="2" fill="none"></path></g></g><g stroke-linecap="round"><g transform="translate(509.7597773298621 171.95390401035547) rotate(0 38.290911281481385 87.30746061168611)"><path d="M1.99 -0.74 C23.62 19.49, 46.47 43.7, 77.35 71.03 M-0.77 -0.37 C28.15 27.07, 57.97 54.87, 76.03 72.73 M76.12 70.8 C55.7 101.69, 34.93 130.81, 9.32 174.18 M75.41 72.96 C55.12 104.38, 35.44 135.95, 8.32 175.36" stroke="#000000" stroke-width="2" fill="none"></path></g><g transform="translate(509.7597773298621 171.95390401035547) rotate(0 38.290911281481385 87.30746061168611)"><path d="M17.56 145.5 C14.72 153.18, 13.33 164.83, 10.17 174.39 M14.8 145.87 C11.86 157.49, 9.63 168.68, 8.85 176.09" stroke="#000000" stroke-width="2" fill="none"></path></g><g transform="translate(509.7597773298621 171.95390401035547) rotate(0 38.290911281481385 87.30746061168611)"><path d="M34.58 156.97 C26.7 161.3, 20.32 169.58, 10.17 174.39 M31.82 157.34 C22.34 164.68, 13.51 171.42, 8.85 176.09" stroke="#000000" stroke-width="2" fill="none"></path></g></g><g stroke-linecap="round"><g stroke-opacity="0.5" fill-opacity="0.5" transform="translate(464.7597773298621 356.9539040103555) rotate(0 -173.7999226193491 -26.79295322498234)"><path d="M1.28 0.67 C-118.76 -21.17, -237.44 -37.89, -348.22 -54.26 M-0.46 -0.49 C-129.69 -17.77, -258.04 -37.38, -348.88 -54.15" stroke="#000000" stroke-width="1" fill="none"></path></g><g stroke-opacity="0.5" fill-opacity="0.5" transform="translate(464.7597773298621 356.9539040103555) rotate(0 -173.7999226193491 -26.79295322498234)"><path d="M-317.37 -58.41 C-330.08 -59.12, -340.41 -54.82, -347.67 -54.55 M-320.06 -60.21 C-331.18 -56.9, -340.57 -54.3, -348.69 -54.37" stroke="#000000" stroke-width="1" fill="none"></path></g><g stroke-opacity="0.5" fill-opacity="0.5" transform="translate(464.7597773298621 356.9539040103555) rotate(0 -173.7999226193491 -26.79295322498234)"><path d="M-320.86 -38.18 C-332.3 -45.73, -341.44 -48.3, -347.67 -54.55 M-323.56 -39.99 C-333.26 -44.2, -341.35 -49.1, -348.69 -54.37" stroke="#000000" stroke-width="1" fill="none"></path></g></g><g stroke-linecap="round"><g stroke-opacity="0.5" fill-opacity="0.5" transform="translate(233.75977732986212 447.9539040103555) rotate(0 28.925698619509546 -171.0098624707561)"><path d="M-0.5 1.06 C20.17 -104.42, 36.79 -210.08, 57.99 -342.15 M0.17 -0.44 C11.87 -78.1, 25.67 -155.74, 58.36 -343.08" stroke="#000000" stroke-width="1" fill="none"></path></g><g stroke-opacity="0.5" fill-opacity="0.5" transform="translate(233.75977732986212 447.9539040103555) rotate(0 28.925698619509546 -171.0098624707561)"><path d="M62.85 -311.92 C62.78 -321.79, 59.43 -331.85, 58.34 -341.78 M63.88 -314.21 C62.06 -320.16, 61.77 -326.22, 58.9 -343.2" stroke="#000000" stroke-width="1" fill="none"></path></g><g stroke-opacity="0.5" fill-opacity="0.5" transform="translate(233.75977732986212 447.9539040103555) rotate(0 28.925698619509546 -171.0098624707561)"><path d="M42.63 -315.45 C48.72 -324.22, 51.56 -333.2, 58.34 -341.78 M43.67 -317.74 C46.46 -322.93, 50.78 -328.19, 58.9 -343.2" stroke="#000000" stroke-width="1" fill="none"></path></g></g><g stroke-linecap="round"><g transform="translate(403.7597773298621 511.9539040103555) rotate(0 -86.18237453140318 47.96779587306082)"><path d="M1.16 1.86 C-26.74 34.2, -57.69 68.9, -82.74 96.35 M-0.15 0.45 C-27.81 32.34, -55.32 64.64, -84.43 98.59 M-83.11 98.6 C-117.01 57.96, -152.96 21.69, -172.94 -0.38 M-84.55 97.63 C-104.56 73.2, -128.35 50.03, -173.52 -2.66" stroke="#000000" stroke-width="2" fill="none"></path></g><g transform="translate(403.7597773298621 511.9539040103555) rotate(0 -86.18237453140318 47.96779587306082)"><path d="M-146.06 13.62 C-155.02 6.67, -166.03 2.53, -172.27 -4.31 M-147.36 12.2 C-155.89 6.65, -164.07 1.28, -173.95 -2.07" stroke="#000000" stroke-width="2" fill="none"></path></g><g transform="translate(403.7597773298621 511.9539040103555) rotate(0 -86.18237453140318 47.96779587306082)"><path d="M-161.48 27.15 C-165.23 15.41, -170.91 6.59, -172.27 -4.31 M-162.79 25.74 C-166.17 15.71, -169.18 5.8, -173.95 -2.07" stroke="#000000" stroke-width="2" fill="none"></path></g></g><g stroke-linecap="round"><g transform="translate(322.7597773298621 515.9539040103555) rotate(0 -46.274259112775326 12.01707460731268)"><path d="M1.82 -0.62 C-5.56 10.57, -12.4 17.04, -21.02 33.78 M0.25 0.86 C-5.19 7.28, -10.33 12.81, -22.74 32.92 M-22.14 33.94 C-42.21 21.58, -66.18 8.42, -94.37 -9.91 M-22.82 31.15 C-39.19 23.4, -57.66 13.91, -93.79 -8.52" stroke="#000000" stroke-width="2" fill="none"></path></g><g transform="translate(322.7597773298621 515.9539040103555) rotate(0 -46.274259112775326 12.01707460731268)"><path d="M-62.53 -3.36 C-71.93 -2.49, -80.67 -6.39, -92.31 -6.75 M-64.1 -1.89 C-70.99 -3.62, -77.62 -6.22, -94.03 -7.6" stroke="#000000" stroke-width="2" fill="none"></path></g><g transform="translate(322.7597773298621 515.9539040103555) rotate(0 -46.274259112775326 12.01707460731268)"><path d="M-73.13 14.21 C-79.67 10.18, -85.51 1.47, -92.31 -6.75 M-74.7 15.69 C-79.28 10.21, -83.63 3.83, -94.03 -7.6" stroke="#000000" stroke-width="2" fill="none"></path></g></g><g stroke-linecap="round"><g transform="translate(107.75977732986212 419.9539040103555) rotate(0 -48.83568505011499 -54.681970693171024)"><path d="M-1.04 1.91 C-37.24 -25.33, -75.95 -53.18, -97.76 -65.21 M0.09 -0.49 C-36.62 -26.43, -73.46 -52.24, -96.57 -66.95 M-96.74 -66.19 C-81.69 -84.22, -63.64 -97.34, -52.21 -111.27 M-96.38 -66.7 C-80.22 -83.42, -62.18 -98.28, -51.06 -110.96" stroke="#000000" stroke-width="2" fill="none"></path></g><g transform="translate(107.75977732986212 419.9539040103555) rotate(0 -48.83568505011499 -54.681970693171024)"><path d="M-64.37 -81.68 C-57.68 -93.11, -53.46 -105.53, -52.32 -109.67 M-63.24 -84.08 C-58.29 -94.09, -53.37 -104.88, -51.13 -111.41" stroke="#000000" stroke-width="2" fill="none"></path></g><g transform="translate(107.75977732986212 419.9539040103555) rotate(0 -48.83568505011499 -54.681970693171024)"><path d="M-79.1 -95.97 C-66.61 -101.72, -56.58 -108.49, -52.32 -109.67 M-77.97 -98.38 C-67.39 -102.77, -56.82 -108.07, -51.13 -111.41" stroke="#000000" stroke-width="2" fill="none"></path></g></g><g stroke-linecap="round"><g transform="translate(138.75977732986212 100.95390401035547) rotate(0 65.52927103079855 -45.702190393581986)"><path d="M-1.67 -1.86 C13.17 -21.9, 25.38 -46.58, 48.26 -89.3 M-0.72 -0.45 C17.95 -33.4, 38.16 -68.7, 49.19 -89.73 M49.34 -90.95 C65.53 -79.12, 84.62 -71.08, 131.62 -44.95 M49.28 -90.49 C81.62 -72.58, 115.29 -55.5, 132.73 -44.26" stroke="#000000" stroke-width="2" fill="none"></path></g><g transform="translate(138.75977732986212 100.95390401035547) rotate(0 65.52927103079855 -45.702190393581986)"><path d="M101.56 -51.6 C110.73 -47.43, 117.68 -47.73, 130.98 -44.06 M102.52 -50.19 C113.71 -46.5, 125.98 -45.03, 131.91 -44.49" stroke="#000000" stroke-width="2" fill="none"></path></g><g transform="translate(138.75977732986212 100.95390401035547) rotate(0 65.52927103079855 -45.702190393581986)"><path d="M111.99 -69.28 C118.41 -60.65, 122.68 -56.42, 130.98 -44.06 M112.94 -67.87 C120.19 -57.39, 128.42 -49.09, 131.91 -44.49" stroke="#000000" stroke-width="2" fill="none"></path></g></g></svg>