<svg style="display:none;visibility:hidden;">
	<symbol id="icon__github" viewbox='0 0 1024 1024'>
		<path d="M512.008 12.642C229.27 12.642 0 241.86 0 524.64c0 226.214 146.704 418.132 350.136 485.836 25.586 4.738 34.992-11.11 34.992-24.632 0-12.204-.48-52.542-.696-95.324-142.448 30.976-172.504-60.41-172.504-60.41-23.282-59.176-56.848-74.916-56.848-74.916-46.452-31.778 3.51-31.124 3.51-31.124 51.4 3.61 78.476 52.766 78.476 52.766 45.672 78.27 119.776 55.64 149.004 42.558 4.588-33.086 17.852-55.68 32.506-68.464C304.846 737.988 185.3 694.08 185.3 497.898c0-55.898 20.004-101.574 52.76-137.428-5.316-12.9-22.854-64.972 4.952-135.5 0 0 43.006-13.752 140.84 52.49 40.836-11.348 84.636-17.036 128.154-17.234 43.502.198 87.336 5.886 128.256 17.234 97.734-66.244 140.656-52.49 140.656-52.49 27.872 70.528 10.35 122.6 5.036 135.5 32.82 35.856 52.694 81.532 52.694 137.428 0 196.654-119.778 239.95-233.79 252.624 18.364 15.89 34.724 47.046 34.724 94.812 0 68.508-.596 123.644-.596 140.508 0 13.628 9.222 29.594 35.172 24.566C877.48 942.632 1024 750.782 1024 524.64c0-282.78-229.234-511.998-511.992-511.998z"></path>
	</symbol>
	<symbol id="icon__twitter" viewbox='0 0 1024 1024'>
		<path d="M1024 226.4c-37.6 16.8-78.2 28-120.6 33 43.4-26 76.6-67.2 92.4-116.2-40.6 24-85.6 41.6-133.4 51C824 153.4 769.4 128 709 128c-116 0-210 94-210 210 0 16.4 1.8 32.4 5.4 47.8-174.6-8.8-329.4-92.4-433-219.6-18 31-28.4 67.2-28.4 105.6 0 72.8 37 137.2 93.4 174.8-34.4-1-66.8-10.6-95.2-26.2v2.6c0 101.8 72.4 186.8 168.6 206-17.6 4.8-36.2 7.4-55.4 7.4-13.6 0-26.6-1.4-39.6-3.8 26.8 83.4 104.4 144.2 196.2 146-72 56.4-162.4 90-261 90-17 0-33.6-1-50.2-3C93 925.4 203.4 960 322 960c386.4 0 597.8-320.2 597.8-597.8 0-9.2-.2-18.2-.6-27.2 41-29.4 76.6-66.4 104.8-108.6z"></path>
	</symbol>
	<symbol id="icon__linkedin" viewbox='0 0 1024 1024'>
		<path d="M928 0H96C43.2 0 0 43.2 0 96v832c0 52.8 43.2 96 96 96h832c52.8 0 96-43.2 96-96V96c0-52.8-43.2-96-96-96zM384 832H256V384h128v448zm-64-512c-35.4 0-64-28.6-64-64s28.6-64 64-64 64 28.6 64 64-28.6 64-64 64zm512 512H704V576c0-35.4-28.6-64-64-64s-64 28.6-64 64v256H448V384h128v79.4c26.4-36.2 66.8-79.4 112-79.4 79.6 0 144 71.6 144 160v288z"></path>
	</symbol>
	<symbol id="icon__cross" viewbox='0 0 1024 1024'>
		<path d="M589.3 393.1V1024H434.2V393.1H144.9V248.2h289.3V0h155.1v248.2h289.8v144.9z"></path>
	</symbol>
</svg>
