<svg style="display:none;visibility:hidden;">
	<symbol id="icon__github" viewBox="0 0 24 24">
		<path d="M9 19c-5 1.5-5-2.5-7-3m14 6v-3.87a3.37 3.37 0 0 0-.94-2.61c3.14-.35 6.44-1.54 6.44-7A5.44 5.44 0 0 0 20 4.77 5.07 5.07 0 0 0 19.91 1S18.73.65 16 2.48a13.38 13.38 0 0 0-7 0C6.27.65 5.09 1 5.09 1A5.07 5.07 0 0 0 5 4.77a5.44 5.44 0 0 0-1.5 3.78c0 5.42 3.3 6.61 6.44 7A3.37 3.37 0 0 0 9 18.13V22" fill="none" stroke="#000" stroke-linecap="round" stroke-linejoin="round" stroke-width="2"/>
	</symbol>
	<symbol id="icon__twitter" viewBox="0 0 24 24">
		<path d="M23 3a10.9 10.9 0 0 1-3.14 1.53 4.48 4.48 0 0 0-7.86 3v1A10.66 10.66 0 0 1 3 4s-4 9 5 13a11.64 11.64 0 0 1-7 2c9 5 20 0 20-11.5a4.5 4.5 0 0 0-.08-.83A7.72 7.72 0 0 0 23 3z" fill="none" stroke="#000" stroke-linecap="round" stroke-linejoin="round" stroke-width="2"/>
	</symbol>
	<symbol id="icon__linkedin" viewbox="0 0 1024 1024">
		<path d="M928 0H96C43.2 0 0 43.2 0 96v832c0 52.8 43.2 96 96 96h832c52.8 0 96-43.2 96-96V96c0-52.8-43.2-96-96-96zM384 832H256V384h128v448zm-64-512c-35.4 0-64-28.6-64-64s28.6-64 64-64 64 28.6 64 64-28.6 64-64 64zm512 512H704V576c0-35.4-28.6-64-64-64s-64 28.6-64 64v256H448V384h128v79.4c26.4-36.2 66.8-79.4 112-79.4 79.6 0 144 71.6 144 160v288z"></path>
	</symbol>
	<symbol id="icon__cross" viewbox="0 0 1024 1024">
		<path d="M589.3 393.1V1024H434.2V393.1H144.9V248.2h289.3V0h155.1v248.2h289.8v144.9z"></path>
	</symbol>
</svg>
